<svg width="64" height="64" fill="none" xmlns="http://www.w3.org/2000/svg"><path d="M64 32C64 14.327 49.673 0 32 0 14.327 0 0 14.327 0 32c0 17.673 14.327 32 32 32 17.673 0 32-14.327 32-32Z" fill="url(#a)"/><path d="m17.322 33.366 21.813-21.663c.407-.404 1.063.088.788.592l-8.119 14.88a.498.498 0 0 0 .437.737h14.03c.453 0 .67.553.34.862L22.025 51.72c-.44.411-1.097-.169-.743-.657l11.639-16.055a.498.498 0 0 0-.404-.79H17.673a.498.498 0 0 1-.351-.852Z" fill="#fff"/><defs><linearGradient id="a" x1="32" y1="0" x2="32" y2="64" gradientUnits="userSpaceOnUse"><stop stop-color="#7BCBD4"/><stop offset="1" stop-color="#29C6B7"/></linearGradient></defs></svg>