<svg width="64" height="64" fill="none" xmlns="http://www.w3.org/2000/svg"><path d="M3.86983 35.0915c6.98777 0 13.55677 2.7296 18.49347 7.6945 4.9456 4.9648 7.6685 11.5778 7.6685 18.6176h10.7684c0-20.4476-16.5675-37.0817-36.93037-37.0817v10.7696Zm.01693-19.0907c24.90434 0 45.16674 20.3731 45.16674 45.4163H59.822c0-30.9823-25.094-56.18471-55.93524-56.18471V16.0008ZM18.7779 53.8942c0 4.1182-3.3404 7.4586-7.4585 7.4586-4.11823 0-7.45861-3.3393-7.45861-7.4586 0-4.1204 3.33925-7.4586 7.45741-7.4586 4.1182 0 7.4597 3.3382 7.4597 7.4586Z" fill="#000"/></svg>