<svg width="64" height="64" fill="none" xmlns="http://www.w3.org/2000/svg"><g clip-path="url(#a)" fill="#000"><path d="M14.2919 31.4711c-.1754.8527-.2718 1.7289-.2718 2.6211 0 8.3897 8.0496 15.1869 17.9804 15.1869s17.9803-6.7972 17.9803-15.1869c0-.8913-.0973-1.7684-.2727-2.6211-3.7318-3.7365-10.2653-6.2203-17.7076-6.2203-7.4433 0-13.9768 2.4838-17.7086 6.2203Zm26.2255 3.9463c0 4.5948-3.8127 8.3162-8.5169 8.3162-4.7033 0-8.517-3.7214-8.517-8.3162 0-1.151.2391-2.2466.6728-3.2442.4838 1.3534 1.8003 2.32 3.3491 2.32 1.9613 0 3.5486-1.5492 3.5486-3.4654 0-1.5125-.9917-2.7982-2.3747-3.2716 1.0206-.4216 2.1434-.6569 3.3212-.6569 4.7032 0 8.5169 3.7252 8.5169 8.3181Z"/><path d="M32.0005 0C11.4931 7.32235-3.1911 30.1638.59657 53.2339.59657 53.2339 12.852 64 31.9995 64c19.1484 0 31.4029-10.7661 31.4029-10.7661C67.1901 30.1638 52.5078 7.32235 32.0005 0Zm27.0456 50.6654s-4.495 3.7242-11.2762 5.793c-.2583.08-.559.0856-.8298-.0688-.3952-.2249-.5022-.6785-.267-1.0757.0385-.064.1484-.193.2544-.2777 1.6279-1.3073 2.9897-2.9355 4.1058-4.8235 1.9979-3.3807 2.7294-7.1322 2.3381-10.7388l-.0039-.0075c-1.1594 5.8296-4.8035 11.1548-10.483 14.3585-12.0743 6.8057-27.2915 5.0175-37.92778-3.1576 0 0-1.0563-5.6649.49924-12.4339.05879-.2569.20432-.5158.47708-.6654.39804-.224.85198-.0885 1.08618.3106.03951.064.0983.2221.12047.3529.34407 2.0292 1.10642 3.9944 2.22345 5.8843 1.99886 3.3797 4.96156 5.8738 8.35306 7.3468-1.7724-1.505-3.325-3.3186-4.5654-5.4184-2.0914-3.5369-3.0215-7.4146-2.9097-11.2178.2612-13.3695 9.3709-25.06922 21.7584-29.90593 0 0 5.5514 1.94071 10.777 6.63903.1995.1798.3537.433.3528.7379-.0029.448-.3489.7642-.8202.7642-.0771 0-.2467-.0291-.3749-.0743-1.9729-.7247-4.0961-1.0635-6.3292-1.0635-3.9968 0-7.691 1.2593-10.6912 3.3929l-.0039.0038c6.282-2.1224 13.1219-1.2706 18.5962 2.0499 11.657 6.9232 17.4397 20.4385 15.54 33.295Z"/></g><defs><clipPath id="a"><path fill="#fff" d="M0 0h64v64H0z"/></clipPath></defs></svg>
