<svg width="48" height="48" viewBox="0 0 48 48" fill="none" xmlns="http://www.w3.org/2000/svg">
<path fill-rule="evenodd" clip-rule="evenodd" d="M18.0444 10.0099C23.3182 8.17124 29.0605 8.90859 33.6557 11.7863C43.4408 17.7845 48.2957 29.4928 46.7016 40.6302C46.7016 40.6302 42.9266 43.8583 37.2347 45.6509C37.0179 45.7179 36.7655 45.7233 36.5386 45.5901C36.2057 45.3959 36.1164 45.0022 36.3137 44.6586C36.3453 44.6031 36.4379 44.4908 36.5265 44.4184C37.8931 43.286 39.0362 41.8749 39.9732 40.2392C41.5904 37.4262 42.2778 34.1678 41.9359 30.9351L41.9332 30.9283C40.9593 35.9808 37.9012 40.5916 33.1328 43.3679C22.9967 49.266 10.2226 47.7162 1.29403 40.6336C1.29403 40.6336 0.407342 35.7265 1.71354 29.8615C1.76254 29.6376 1.88538 29.4144 2.11359 29.2838C2.44786 29.0903 2.82844 29.2067 3.02578 29.553C3.07379 29.6498 3.10791 29.753 3.12714 29.8595C3.41643 31.6163 4.05611 33.3196 4.99381 34.9567C6.60233 37.7739 9.05806 40.0027 12.0061 41.3209C10.479 39.9813 9.1837 38.395 8.17339 36.6269C6.47814 33.6798 5.63224 30.3145 5.73081 26.9094C5.9503 15.3269 13.5975 5.19004 23.9961 1C23.9961 1 28.6558 2.68035 33.0422 6.74998C33.21 6.90624 33.3396 7.12542 33.3382 7.38992C33.3362 7.77753 33.0456 8.0515 32.6502 8.0515C32.5858 8.0515 32.4441 8.0258 32.3367 7.98724C30.6802 7.36083 28.8981 7.06657 27.0227 7.06657C23.7972 7.06153 20.6539 8.0912 18.0478 10.0065L18.0444 10.0099ZM8.90301 26.2728C8.90301 33.5408 15.6602 39.4295 23.9968 39.4295C32.3334 39.4295 39.0913 33.5408 39.0913 26.2728C39.0901 25.5103 39.0132 24.7497 38.8617 24.0026C35.7291 20.7657 30.2445 18.6139 23.9968 18.6139C17.7484 18.6139 12.2638 20.7657 9.13123 24.0026C8.98423 24.7406 8.90301 25.4996 8.90301 26.2728ZM21.2086 20.7842C22.0651 20.4182 23.0074 20.2146 23.9968 20.2146C27.9456 20.2146 31.1467 23.4427 31.146 27.421C31.146 31.4013 27.945 34.6267 23.9962 34.6267C20.0487 34.6267 16.847 31.402 16.847 27.421C16.8456 26.4553 17.0378 25.4992 17.4121 24.6103C17.6158 25.1978 17.9958 25.707 18.4995 26.0671C19.0032 26.4272 19.6056 26.6205 20.2232 26.62C20.6145 26.6203 21.0021 26.5428 21.3637 26.392C21.7252 26.2412 22.0538 26.02 22.3304 25.7411C22.6071 25.4622 22.8265 25.131 22.9761 24.7666C23.1257 24.4022 23.2025 24.0116 23.2021 23.6172C23.2023 22.995 23.0105 22.388 22.6533 21.8805C22.2962 21.3729 21.7913 20.9898 21.2086 20.7842Z" fill="black"/>
</svg>
