<svg width="61" height="64" fill="none" xmlns="http://www.w3.org/2000/svg"><path d="M35.653 62.462c-1.6 2.04-4.845.922-4.884-1.682l-.563-38.09h25.306c4.584 0 7.14 5.358 4.29 8.991l-24.149 30.78Z" fill="url(#a)"/><path d="M35.653 62.462c-1.6 2.04-4.845.922-4.884-1.682l-.563-38.09h25.306c4.584 0 7.14 5.358 4.29 8.991l-24.149 30.78Z" fill="url(#b)" fill-opacity=".2"/><path d="M25.36 1.173c1.601-2.04 4.846-.922 4.884 1.682l.248 38.09H5.502c-4.584 0-7.141-5.359-4.29-8.992L25.36 1.173Z" fill="#3ECF8E"/><defs><linearGradient id="a" x1="30.206" y1="31.136" x2="52.777" y2="40.489" gradientUnits="userSpaceOnUse"><stop stop-color="#249361"/><stop offset="1" stop-color="#3ECF8E"/></linearGradient><linearGradient id="b" x1="20.234" y1="17.319" x2="30.684" y2="36.756" gradientUnits="userSpaceOnUse"><stop/><stop offset="1" stop-opacity="0"/></linearGradient></defs></svg>