<svg width="64" height="64" fill="none" xmlns="http://www.w3.org/2000/svg"><path d="m32 2 9.27 19.7476L62 24.9338 47 40.2965 50.54 62 32 51.7476 13.46 62 17 40.2965 2 24.9338l20.73-3.1862L32 2Z" stroke="#000" stroke-width="2" stroke-linecap="round" stroke-linejoin="round"/><path fill-rule="evenodd" clip-rule="evenodd" d="M32 23c-6.63 0-12 5.5058-12 12.3035 0 5.4443 3.435 10.0428 8.205 11.673.6.1077.825-.2615.825-.5844 0-.2922-.015-1.2611-.015-2.2916-3.015.5691-3.795-.7535-4.035-1.4456-.135-.3537-.72-1.4457-1.23-1.7379-.42-.2307-1.02-.7997-.015-.8151.945-.0154 1.62.892 1.845 1.2611 1.08 1.8609 2.805 1.338 3.495 1.0151.105-.7998.42-1.3381.765-1.6456-2.67-.3076-5.46-1.3688-5.46-6.0749 0-1.338.465-2.4453 1.23-3.3066-.12-.3076-.54-1.5687.12-3.2604 0 0 1.005-.323 3.3 1.2611.96-.2768 1.98-.4152 3-.4152s2.04.1384 3 .4152c2.295-1.5995 3.3-1.2611 3.3-1.2611.66 1.6917.24 2.9528.12 3.2604.765.8613 1.23 1.9532 1.23 3.3066 0 4.7215-2.805 5.7673-5.475 6.0749.435.3844.81 1.1227.81 2.2761 0 1.6456-.015 2.9682-.015 3.3835 0 .3229.225.7074.825.5844 2.3822-.8246 4.4523-2.3943 5.9188-4.4883 1.4664-2.094 2.2556-4.6068 2.2562-7.1847C44 28.5058 38.63 23 32 23Z" fill="#000"/></svg>