<svg width="64" height="64" fill="none" xmlns="http://www.w3.org/2000/svg"><g clip-path="url(#a)"><path fill-rule="evenodd" clip-rule="evenodd" d="M32.0041 7.1e-7c.6048-.00040934 1.1976.17629529 1.7114.51011229.5138.333817.9279.811417 1.1957 1.378747l8.1294 17.23924 18.1853 2.7655c.5982.0908 1.16.3549 1.6222.7624.4621.4074.8061.942.993 1.5432.187.6013.2094 1.2452.0648 1.8591-.1446.6139-.4504 1.1732-.883 1.6148L49.8655 41.0939l3.1058 18.9428c.1024.6233.036 1.2641-.1915 1.85-.2276.5859-.6074 1.0935-1.0963 1.4654-.489.3719-1.0677.5932-1.6706.639-.603.0458-1.2062-.0859-1.7413-.38l-16.2675-8.9472-16.2675 8.9472c-.5348.2937-1.1375.4252-1.74.3796-.6024-.0456-1.1807-.2666-1.6695-.6378-.4888-.3713-.8686-.8782-1.0966-1.4633-.228-.5852-.295-1.2254-.1936-1.8484l3.1101-18.9518L.980973 27.6731c-.433829-.4414-.740809-1.0011-.8861509-1.6156-.1453424-.6146-.1232369-1.2594.0638119-1.8615.187048-.6021.531561-1.1373.994496-1.545.46294-.4078 1.02579-.6717 1.62478-.762l18.18539-2.7609L29.097 1.88886c.2677-.56733.6819-1.04493 1.1957-1.378747.5138-.333817 1.1066-.51052163 1.7114-.51011229Zm0 11.04849929-5.9826 12.6752c-.2323.4921-.5754.9178-.9998 1.2405s-.9173.5328-1.4364.6122l-13.3777 2.0334 9.6758 9.8691c.3765.3835.6581.857.8206 1.3797.1626.5227.2012 1.079.1124 1.6208l-2.2807 13.9359 11.9609-6.5793c.4649-.2557.9822-.3893 1.5075-.3893.5252 0 1.0426.1336 1.5075.3893l11.9652 6.5793-2.2894-13.9359c-.0887-.5418-.0501-1.0981.1124-1.6208.1626-.5227.4442-.9962.8207-1.3797l9.6758-9.8645-13.3734-2.0335c-.5191-.0794-1.0121-.2894-1.4364-.6122-.4244-.3227-.7675-.7484-.9998-1.2405l-5.9826-12.6843v.0046Z" fill="#000"/></g><defs><clipPath id="a"><path fill="#fff" d="M0 0h64v64H0z"/></clipPath></defs></svg>