<svg width="48" height="48" fill="none" xmlns="http://www.w3.org/2000/svg"><path fill-rule="evenodd" clip-rule="evenodd" d="M6 5.5C6 2.46244 8.46243 0 11.5 0h29c.8284 0 1.5.671573 1.5 1.5v41c0 .8284-.6716 1.5-1.5 1.5h-12c-.8284 0-1.5-.6716-1.5-1.5s.6716-1.5 1.5-1.5H39v-8H12c-1.6569 0-3 1.3431-3 3v1.5c0 1.4329.86129 2.668 2.1006 3.2094.7591.3317 1.1056 1.216.7739 1.9751-.3316.7591-1.2159 1.1057-1.97506.774C7.6069 42.4568 6 40.1677 6 37.5v-32ZM39 3v27H12c-1.0929 0-2.11748.2922-3 .8027V5.5C9 4.11929 10.1193 3 11.5 3H39Z" fill="#000"/><path d="M14 36.5c0-.2761.2239-.5.5-.5h10c.2761 0 .5.2239.5.5v10.0181c0 .4087-.4636.6447-.7941.4044l-4.4118-3.2086c-.1753-.1275-.4129-.1275-.5882 0l-4.4118 3.2086c-.3305.2403-.7941.0043-.7941-.4044V36.5Z" fill="#000"/><path fill-rule="evenodd" clip-rule="evenodd" d="M23.9999 9.25c.14-.00009.2773.03901.3962.11289.119.07387.2148.17956.2768.30511l1.882 3.815 4.21.612c.1385.0201.2685.0786.3755.1687.107.0902.1866.2085.2299.3415.0433.1331.0485.2756.015.4115-.0335.1358-.1043.2596-.2044.3573l-3.046 2.97.719 4.192c.0237.1379.0084.2797-.0443.4094-.0527.1297-.1406.242-.2538.3243-.1132.0823-.2472.1313-.3868.1414-.1396.0101-.2792-.019-.4031-.0841l-3.766-1.98-3.766 1.98c-.1238.065-.2633.0941-.4028.084-.1395-.0101-.2733-.059-.3865-.1411-.1132-.0822-.2011-.1944-.2539-.3239-.0527-.1295-.0683-.2711-.0448-.409l.72-4.194-3.048-2.969c-.1004-.0977-.1715-.2215-.2051-.3575-.0337-.136-.0286-.2787.0147-.412.0433-.1332.1231-.2517.2303-.3419.1071-.0902.2375-.1486.3761-.1686l4.21-.611 1.883-3.815c.062-.12555.1579-.23124.2768-.30511.119-.07388.2562-.11298.3962-.11289Z" fill="#000"/></svg>