<svg width="64" height="64" fill="none" xmlns="http://www.w3.org/2000/svg"><path fill-rule="evenodd" clip-rule="evenodd" d="M32 1c.5601-.000362 1.109.15606 1.5848.45155.4757.29549.8593.71826 1.1072 1.22045l7.528 15.26 16.84 2.448c.5539.0804 1.0742.3142 1.5021.6749.428.3606.7465.8338.9196 1.366.1731.5323.1939 1.1023.06 1.6457-.1339.5434-.4171 1.0385-.8177 1.4294L48.54 37.376l2.876 16.768c.0948.5517.0334 1.119-.1773 1.6376-.2108.5186-.5624.968-1.0152 1.2972-.4528.3292-.9887.5251-1.547.5656-.5584.0405-1.1169-.076-1.6125-.3364L32 49.388l-15.064 7.92c-.4952.26-1.0533.3764-1.6112.336-.5579-.0404-1.0934-.2359-1.5461-.5646-.4526-.3286-.8043-.7773-1.0154-1.2953-.2112-.518-.2732-1.0847-.1793-1.6361l2.88-16.776L3.272 25.496c-.40173-.3907-.686-.8861-.82059-1.4301-.13459-.544-.11412-1.1148.05909-1.6478.17321-.5329.49224-1.0067.92092-1.3677.42869-.3609.94991-.5945 1.50458-.6744l16.84-2.444 7.532-15.26c.2479-.50219.6315-.92496 1.1072-1.22045C30.891 1.15606 31.4399.999638 32 1Zm0 9.78L26.46 22c-.2151.4356-.5328.8124-.9258 1.0981-.393.2857-.8495.4716-1.3302.5419l-12.388 1.8 8.96 8.736c.3486.3395.6094.7586.7599 1.2213.1506.4627.1863.9551.1041 1.4347l-2.112 12.336 11.076-5.824c.4305-.2263.9096-.3446 1.396-.3446.4864 0 .9655.1183 1.396.3446l11.08 5.824-2.12-12.336c-.0822-.4796-.0465-.972.1041-1.4347.1505-.4627.4113-.8818.7599-1.2213l8.96-8.732-12.384-1.8c-.4807-.0703-.9372-.2562-1.3302-.5419-.3929-.2857-.7107-.6625-.9258-1.0981L32 10.776v.004Z" fill="#000"/></svg>