<svg width="64" height="64" fill="none" xmlns="http://www.w3.org/2000/svg"><path fill-rule="evenodd" clip-rule="evenodd" d="M32.0041 7.1e-7c.6048-.00040934 1.1976.17629429 1.7114.51011229.5138.333817.9279.811417 1.1957 1.378747l8.1294 17.23924 18.1854 2.7655c.5981.0908 1.1599.3549 1.6221.7624.4621.4074.8061.942.993 1.5432.187.6013.2094 1.2452.0648 1.8591-.1446.6139-.4505 1.1732-.883 1.6148L49.8655 41.0939l3.1058 18.9428c.1024.6233.036 1.2641-.1915 1.85-.2276.5859-.6074 1.0935-1.0963 1.4654-.489.3719-1.0677.5932-1.6706.639-.603.0458-1.2062-.0859-1.7413-.38l-16.2675-8.9472-16.2675 8.9472c-.5348.2937-1.1375.4252-1.74.3796-.6024-.0456-1.1807-.2666-1.6695-.6378-.4888-.3713-.8686-.8782-1.0966-1.4633-.228-.5852-.295-1.2254-.1936-1.8484l3.1101-18.9518L.980973 27.6731c-.433829-.4414-.740809-1.0011-.8861509-1.6156-.1453424-.6146-.1232369-1.2594.0638119-1.8615.187048-.6021.531561-1.1373.994496-1.545.46294-.4078 1.02579-.6717 1.62478-.762l18.18539-2.7609L29.097 1.88886c.2677-.56733.6819-1.04493 1.1957-1.378747.5138-.333818 1.1066-.51052163 1.7114-.51011229Zm0 11.04849929-5.9826 12.6752c-.2323.4921-.5754.9178-.9998 1.2405s-.9173.5328-1.4364.6122l-13.3777 2.0334 9.6758 9.8691c.3765.3835.6581.857.8206 1.3797.1626.5227.2012 1.079.1124 1.6208l-2.2807 13.9359 11.9609-6.5793c.4649-.2557.9822-.3893 1.5075-.3893.5252 0 1.0426.1336 1.5075.3893l11.9652 6.5793-2.2894-13.9359c-.0887-.5418-.0501-1.0981.1124-1.6208.1626-.5227.4442-.9962.8207-1.3797l9.6758-9.8645-13.3734-2.0335c-.5191-.0794-1.0121-.2894-1.4364-.6122-.4244-.3227-.7675-.7484-.9998-1.2405l-5.9826-12.6843v.0046Z" fill="#000"/><path fill-rule="evenodd" clip-rule="evenodd" d="M32 27c-4.42 0-8 3.6706-8 8.2024 0 3.6295 2.29 6.6951 5.47 7.7819.4.0718.55-.1743.55-.3896 0-.1948-.01-.8407-.01-1.5277-2.01.3794-2.53-.5024-2.69-.9637-.09-.2359-.48-.9638-.82-1.1586-.28-.1538-.68-.5332-.01-.5434.63-.0103 1.08.5946 1.23.8407.72 1.2406 1.87.892 2.33.6767.07-.5332.28-.892.51-1.0971-1.78-.205-3.64-.9125-3.64-4.0499 0-.892.31-1.6302.82-2.2044-.08-.205-.36-1.0458.08-2.1736 0 0 .67-.2153 2.2.8408.64-.1846 1.32-.2769 2-.2769.68 0 1.36.0923 2 .2769 1.53-1.0663 2.2-.8408 2.2-.8408.44 1.1278.16 1.9686.08 2.1736.51.5742.82 1.3022.82 2.2044 0 3.1477-1.87 3.8449-3.65 4.0499.29.2564.54.7485.54 1.5175 0 1.097-.01 1.9788-.01 2.2556 0 .2153.15.4717.55.3896 1.5882-.5497 2.9682-1.5962 3.9458-2.9922.9777-1.3959 1.5038-3.0712 1.5042-4.7897C40 30.6706 36.42 27 32 27Z" fill="#000"/></svg>