<svg width="128" height="178" fill="none" xmlns="http://www.w3.org/2000/svg"><path d="M65.025 4.199 4.2 65.023c-5.6 5.599-5.6 14.677 0 20.275l30.412 30.412c5.599 5.599 14.676 5.599 20.275 0l60.825-60.825c5.599-5.599 5.599-14.675 0-20.275L85.3 4.2c-5.599-5.598-14.677-5.598-20.275 0Z" fill="url(#a)"/><path d="m72.501 61.685-60.825 60.826c-5.599 5.599-5.599 14.676 0 20.274l30.412 30.414c5.599 5.599 14.677 5.599 20.275 0l60.825-60.826c5.599-5.599 5.599-14.675 0-20.275L92.776 61.686c-5.599-5.598-14.676-5.598-20.275 0Z" fill="url(#b)"/><defs><linearGradient id="a" x1="59.721" y1="-5.939" x2="59.721" y2="125.918" gradientUnits="userSpaceOnUse"><stop stop-color="#FF9FC4"/><stop offset="1" stop-color="#FF5597"/></linearGradient><linearGradient id="b" x1="67.256" y1="51.648" x2="67.256" y2="183.505" gradientUnits="userSpaceOnUse"><stop stop-color="#8AAFFF"/><stop offset="1" stop-color="#0251FD"/></linearGradient></defs></svg>