<svg width="64" height="64" fill="none" xmlns="http://www.w3.org/2000/svg"><path d="M32.528 2.836 11.485 23.88a4.959 4.959 0 0 0 0 7.014l10.521 10.52a4.96 4.96 0 0 0 7.014 0l21.043-21.041a4.96 4.96 0 0 0 0-7.014L39.541 2.835a4.96 4.96 0 0 0-7.014 0Z" fill="url(#a)"/><path d="M35.114 22.724 14.072 43.766a4.96 4.96 0 0 0 0 7.014L24.592 61.3a4.96 4.96 0 0 0 7.015 0L52.649 40.26a4.96 4.96 0 0 0 0-7.014L42.128 22.724a4.96 4.96 0 0 0-7.014 0Z" fill="url(#b)"/><defs><linearGradient id="a" x1="30.693" y1="-.671" x2="30.693" y2="44.945" gradientUnits="userSpaceOnUse"><stop stop-color="#FF9FC4"/><stop offset="1" stop-color="#FF5597"/></linearGradient><linearGradient id="b" x1="33.299" y1="19.251" x2="33.299" y2="64.866" gradientUnits="userSpaceOnUse"><stop stop-color="#8AAFFF"/><stop offset="1" stop-color="#0251FD"/></linearGradient></defs></svg>