<svg width="49" height="48" viewBox="0 0 49 48" fill="none" xmlns="http://www.w3.org/2000/svg">
<path fill-rule="evenodd" clip-rule="evenodd" d="M1.75716 12.6845C1.0697 13.0905 0.646729 13.8374 0.646729 14.6453V32.5194C0.646729 33.3272 1.0697 34.0741 1.75716 34.4802L24.6467 48V47.9291L47.5363 34.4093C48.2238 34.0032 48.6467 33.2563 48.6467 32.4485V15.3115C48.6467 14.4369 47.7136 13.8915 46.9694 14.3311L25.7571 26.8602C25.0697 27.2662 24.6467 28.0131 24.6467 28.821V32.1232L2.50674 19.0461L24.6467 5.96898V1.13576C24.6467 0.261237 23.7136 -0.284195 22.9694 0.155359L1.75716 12.6845ZM31.7616 29.0532C31.5897 29.1547 31.484 29.3414 31.484 29.5434V30.9925C31.484 31.2111 31.7173 31.3475 31.9033 31.2376L43.2064 24.5614C43.3782 24.4599 43.484 24.2732 43.484 24.0712V22.6221C43.484 22.4035 43.2507 22.2671 43.0646 22.377L31.7616 29.0532Z" fill="#335BF1"/>
<path d="M16.6467 24.0958C16.6467 23.2879 17.0697 22.541 17.7571 22.135L38.9694 9.60584C39.7136 9.16629 40.6467 9.71172 40.6467 10.5862V15.4195L16.6467 29.5952V24.0958Z" fill="#335BF1"/>
<path d="M8.64672 19.3705C8.64672 18.5627 9.06969 17.8158 9.75715 17.4097L30.9694 4.88061C31.7136 4.44105 32.6467 4.98649 32.6467 5.86101V10.6942L8.64672 24.87V19.3705Z" fill="#335BF1"/>
</svg>

