<svg width="64" height="64" fill="none" xmlns="http://www.w3.org/2000/svg"><g clip-path="url(#a)" fill="#335BF1"><path fill-rule="evenodd" clip-rule="evenodd" d="M2.295 16.913c-.898.541-1.45 1.537-1.45 2.614V43.36c0 1.077.552 2.073 1.45 2.615L32.192 64v-.094l29.896-18.027c.898-.541 1.45-1.537 1.45-2.614v-22.85c0-1.166-1.218-1.893-2.19-1.307L33.642 35.814c-.898.54-1.45 1.537-1.45 2.614v4.403L3.274 25.395 32.192 7.959V1.514c0-1.166-1.22-1.893-2.191-1.307L2.295 16.913Zm39.19 21.825a.761.761 0 0 0-.363.653v1.932c0 .292.305.474.548.327l14.763-8.901a.762.762 0 0 0 .362-.654v-1.932c0-.292-.304-.474-.547-.327l-14.764 8.902Z"/><path d="M21.743 32.128c0-1.078.552-2.073 1.45-2.615l27.706-16.705c.972-.586 2.19.141 2.19 1.307v6.444L21.744 39.46v-7.332ZM11.294 25.827c0-1.077.552-2.073 1.45-2.614L40.45 6.507c.972-.586 2.19.142 2.19 1.308v6.444L11.295 33.16v-7.333Z"/></g><defs><clipPath id="a"><path fill="#fff" d="M0 0h64v64H0z"/></clipPath></defs></svg>