<svg width="49" height="49" viewBox="0 0 49 49" fill="none" xmlns="http://www.w3.org/2000/svg">
<path fill-rule="evenodd" clip-rule="evenodd" d="M24.9939 48.9807H24.9939C11.7391 48.9807 0.993896 38.2355 0.993896 24.9807C0.993897 11.7259 11.7391 0.980713 24.9939 0.980713C38.2487 0.980713 48.9939 11.7259 48.9939 24.9807V24.9807C48.9939 38.2355 38.2487 48.9807 24.9939 48.9807L24.9939 48.9807ZM26.0351 44.99V44.99C37.082 44.4074 45.565 34.9798 44.9824 23.9329C44.4427 13.7005 36.2675 5.52531 26.0351 4.98561V4.98561C25.4847 4.96742 25.0238 5.39885 25.0056 5.94924C25.0052 5.96292 25.005 5.97662 25.0051 5.99031V43.9853V43.9853C25.0007 44.536 25.4435 44.9861 25.9942 44.9905C26.0079 44.9906 26.0215 44.9905 26.0351 44.99V44.99Z" fill="black"/>
</svg>
