<svg width="64" height="64" fill="none" xmlns="http://www.w3.org/2000/svg"><path d="M61.212 2.788c-3.7173-3.717332-9.6651-3.717332-13.3824 0L34.6951 15.9226l-3.2217-3.2217c-.9913-.9913-2.4782-.9913-3.4695 0-.9913.9913-.9913 2.4782 0 3.4695l3.2217 3.2217L4.95644 45.6612c-1.48693 1.4869-2.47822 3.4695-2.72604 5.6999C.743466 52.6002 0 54.5828 0 56.5653 0 60.7783 3.22168 64 7.43466 64c1.98257 0 3.96514-.7435 5.45204-2.2304 1.9826-.2478 3.9652-1.2391 5.4521-2.726l26.2691-26.2692 3.2217 3.2217c.4957.4957 1.2391.7435 1.7348.7435.4956 0 1.2391-.2478 1.7347-.7435.9913-.9913.9913-2.4782 0-3.4695l-3.2217-3.2217L61.212 16.1704c3.7173-3.7174 3.7173-9.66508 0-13.3824ZM14.8693 55.5741c-.9913.9912-1.9826 1.4869-3.2217 1.2391-.9913 0-1.73472.4956-2.23037 1.2391-.24782.4956-1.23911.9913-1.98257.9913-1.48693 0-2.47822-.9913-2.47822-2.4783 0-.7434.49564-1.7347 1.23911-1.9825.74346-.4957 1.23911-1.2391 1.23911-2.2304 0-1.2391.49564-2.4782 1.23911-3.2217L34.6951 22.8616l6.4433 6.4433-26.2691 26.2692Z" fill="#000"/></svg>
